<svg xmlns="http://www.w3.org/2000/svg" fill="none" viewBox="0 0 26 24" height="24" width="26">
<g clip-path="url(#clip0_241_641)">
<path fill="white" d="M26 -1.70073e-07C25.464 3.124 21.7281 3.97716 19.0124 4.70298C15.624 5.60829 10.0116 6.39596 8.36653 9.80859C7.20762 12.2122 8.07586 15.0064 10.4549 16.3373L11.4063 16.7715C10.516 16.7315 9.53428 16.5562 8.66351 16.3464C3.44145 15.0894 -0.677191 11.3106 1.28566 5.77382C3.07511 0.726428 8.52101 0.12188 13.3585 0.526326C16.9468 0.826478 21.6556 1.92036 25.087 0.471147C25.4092 0.335321 25.6797 0.130975 26 -0.000606537V-1.70073e-07Z"></path>
<path fill="white" d="M0 24C0.535953 20.876 4.27186 20.0228 6.98756 19.297C10.376 18.3917 15.9884 17.604 17.6335 14.1914C18.7924 11.7878 17.9241 8.99363 15.5451 7.66266L14.5937 7.2285C15.484 7.26852 16.4657 7.44376 17.3365 7.65356C22.5586 8.91117 26.6772 12.6894 24.7143 18.2262C22.9249 23.2736 17.479 23.8781 12.6415 23.4737C9.05318 23.1735 4.34437 22.0796 0.913011 23.5289C0.590809 23.6647 0.32031 23.869 0 24.0006L0 24Z"></path>
</g>
<defs>
<clipPath id="clip0_241_641">
<rect fill="white" height="24" width="26"></rect>
</clipPath>
</defs>
</svg>
