<svg xmlns="http://www.w3.org/2000/svg" fill="none" viewBox="0 0 125 21" height="21" width="125">
<g style="mix-blend-mode:difference">
<g clip-path="url(#clip0_241_647)">
<path fill="white" d="M-0.000152486 17.7355L0.432488 16.7001C0.9566 15.4452 2.40285 14.8693 3.64886 15.4097C6.17547 16.5045 9.32674 17.1959 13.3664 17.1959C17.8502 17.1959 20.9718 16.2867 20.9718 14.4403C20.9718 12.7927 18.5028 12.5939 12.9123 12.0535C4.93771 11.3143 0.766238 10.0074 0.766238 6.20075C0.766238 2.39407 5.02259 0.177216 12.3445 0.177216C16.8283 0.177216 21.397 1.05835 24.3768 2.39324L24.1041 3.37668C23.7332 4.71405 22.3241 5.46813 21.0055 5.03829C18.6528 4.27101 15.6936 3.72814 12.1171 3.72814C7.43466 3.72814 5.36294 4.69425 5.36294 6.05802C5.36294 7.59257 8.03047 7.96136 13.1101 8.44483C20.2614 9.09825 25.6245 9.83665 25.6245 14.1837C25.6245 18.5308 20.7435 20.7468 13.223 20.7468C8.31395 20.7468 3.71643 19.6957 -0.000976562 17.7355H-0.000152486Z"></path>
<path fill="white" d="M66.6809 0.517953L58.2523 20.4053H55.2164C54.2555 20.4053 53.3894 19.8228 53.0276 18.9309L47.6678 5.74534L42.2265 18.9417C41.8614 19.8269 40.9986 20.4053 40.0418 20.4053H37.1106L28.6259 0.517953H31.8167C32.7348 0.517953 33.5613 1.0765 33.9049 1.92875L39.4658 15.7175L45.6522 0.517953H49.7387L55.8682 15.6605L61.4274 1.92545C61.7719 1.07402 62.5976 0.517128 63.5148 0.517128H66.6801L66.6809 0.517953Z"></path>
<path fill="white" d="M86.9194 16.2009H74.5105C73.8611 16.2009 73.2587 16.54 72.9208 17.0961L71.454 19.5109C71.1161 20.0662 70.5137 20.4061 69.8643 20.4061H65.9442L77.122 2.27196C77.7944 1.18127 78.9827 0.517952 80.2625 0.517952H83.2267L95.5146 20.4053H91.5664C90.917 20.4053 90.3146 20.0662 89.9768 19.5101L88.5099 17.0953C88.172 16.54 87.5696 16.2001 86.9203 16.2001L86.9194 16.2009ZM85.9223 12.7919L80.729 4.21161L75.5356 12.7919H85.9223Z"></path>
<path fill="white" d="M125 0.517952V20.4053H121.054C119.986 20.4053 118.964 19.9672 118.227 19.1925L104.567 4.83615V18.8979C104.567 19.7304 103.893 20.4053 103.061 20.4053H100.055V0.517952H104.228C105.296 0.517952 106.318 0.956867 107.055 1.73157L120.487 15.8594V2.02528C120.487 1.19283 121.161 0.517952 121.993 0.517952H124.999H125Z"></path>
</g>
</g>
<defs>
<clipPath id="clip0_241_647">
<rect transform="translate(0 0.177216)" fill="white" height="20.5696" width="125"></rect>
</clipPath>
</defs>
</svg>
