<svg viewBox="0 0 832.9 167" version="1.1" xmlns="http://www.w3.org/2000/svg" id="Layer_1">
  
  <defs>
    <style>
      .st0 {
        fill: #fff;
      }
    </style>
  </defs>
  <path d="M240.2,117.9l2.1-4.9c2.5-5.9,9.3-8.7,15.2-6.1,12,5.2,26.9,8.5,46.1,8.5s36.1-4.3,36.1-13.1-11.7-8.8-38.2-11.3c-37.8-3.5-57.6-9.7-57.6-27.7s20.2-28.5,54.9-28.5,42.9,4.2,57,10.5l-1.3,4.7c-1.8,6.3-8.4,9.9-14.7,7.9-11.2-3.6-25.2-6.2-42.1-6.2s-32,4.6-32,11,12.6,9,36.7,11.3c33.9,3.1,59.3,6.6,59.3,27.2s-23.1,31.1-58.8,31.1-45.1-5-62.7-14.3h0Z" class="st0"></path>
  <path d="M556.4,36.4l-40,94.2h-14.4c-4.6,0-8.7-2.8-10.4-7l-25.4-62.5-25.8,62.5c-1.7,4.2-5.8,6.9-10.4,6.9h-13.9l-40.2-94.2h15.1c4.4,0,8.3,2.6,9.9,6.7l26.4,65.3,29.3-72h19.4l29.1,71.7,26.4-65.1c1.6-4,5.5-6.7,9.9-6.7h15Z" class="st0"></path>
  <path d="M652.3,110.7h-58.8c-3.1,0-5.9,1.6-7.5,4.2l-7,11.4c-1.6,2.6-4.5,4.2-7.5,4.2h-18.6l53-85.9c3.2-5.2,8.8-8.3,14.9-8.3h14l58.3,94.2h-18.7c-3.1,0-5.9-1.6-7.5-4.2l-7-11.4c-1.6-2.6-4.5-4.2-7.5-4.2h0ZM647.6,94.5l-24.6-40.6-24.6,40.6h49.3Z" class="st0"></path>
  <path d="M832.9,36.4v94.2h-18.7c-5.1,0-9.9-2.1-13.4-5.7l-64.8-68v66.6c0,3.9-3.2,7.1-7.1,7.1h-14.3V36.4h19.8c5.1,0,9.9,2.1,13.4,5.8l63.7,66.9V43.5c0-3.9,3.2-7.1,7.1-7.1h14.3Z" class="st0"></path>
  <path d="M173.9,0c-3.6,21.7-28.6,27.7-46.8,32.7-22.7,6.3-60.2,11.8-71.2,35.5-7.8,16.7-2,36.2,14,45.4l6.4,3c-6-.3-12.5-1.5-18.3-3C23,105-4.5,78.7,8.6,40.2,20.6,5.1,57,.9,89.4,3.7c24,2.1,55.5,9.7,78.5-.4,2.2-1,4-2.4,6.1-3.3Z" class="st0"></path>
  <path d="M0,167c3.6-21.7,28.6-27.7,46.8-32.7,22.7-6.3,60.2-11.8,71.2-35.5,7.8-16.7,1.9-36.2-14-45.4l-6.4-3c6,.3,12.5,1.5,18.3,3,34.9,8.8,62.5,35,49.4,73.6-12,35.1-48.4,39.3-80.8,36.5-24-2.1-55.5-9.7-78.5.4-2.2.9-4,2.4-6.1,3.3Z" class="st0"></path>
</svg>